<svg width="196" height="80" viewBox="0 0 196 80" fill="none" xmlns="http://www.w3.org/2000/svg">
<path d="M111.583 49.6054L92.8643 16.7912L106.312 9L129.588 49.6054H111.583Z" fill="#AFAFAF"/>
<path d="M61.7246 45.0079L75.172 37.1641L82.2872 49.6054H64.3341L61.7246 45.0079Z" fill="#AFAFAF"/>
<path d="M88.1147 70.5398H91.942V54.9224H88.1147V70.5398Z" fill="#AFAFAF"/>
<path d="M136.077 70.9083C131.797 70.9083 129.223 68.6797 129.083 65.5387H133.119C133.119 66.5214 133.728 67.9603 136.338 68.0129C138.077 68.0129 138.895 66.9776 138.895 66.2055C138.791 64.9772 137.26 64.8719 135.625 64.6087C133.989 64.3454 132.598 64.0471 131.589 63.5207C130.301 62.8539 129.431 61.415 129.431 59.7655C129.431 56.9754 131.832 54.7644 135.833 54.7644C139.713 54.7644 142.166 56.8175 142.427 59.8708H138.53C138.495 59.046 138.338 57.7475 136.042 57.7475C134.494 57.7475 133.467 58.0634 133.38 59.1513C133.38 60.7482 136.599 60.6429 139.104 61.3097C141.505 61.9239 143.035 63.433 143.035 65.5387C143.035 69.4167 139.921 70.9083 136.077 70.9083Z" fill="#AFAFAF"/>
<path d="M77.4858 31.0751L90.9333 23.2488L106.016 49.6054H91.9423V53.4659H88.1151V49.5879L77.4858 31.0751Z" fill="#AFAFAF"/>
<path d="M77.8337 70.9083C73.3802 70.9083 69.7617 67.2408 69.7617 62.8013C69.7617 58.3091 73.3802 54.7644 77.8337 54.7644C79.5211 54.7644 81.052 55.2207 82.3915 56.1507V49.6054H86.2187V70.5398H82.3915V69.5045C81.052 70.3819 79.5211 70.9083 77.8337 70.9083ZM73.4324 62.8013C73.4324 65.2229 75.4851 67.2408 77.938 67.2408C80.3387 67.2408 82.3915 65.2229 82.3915 62.8013C82.3915 60.3797 80.3387 58.3091 77.938 58.3091C75.4851 58.3091 73.4324 60.3797 73.4324 62.8013Z" fill="#AFAFAF"/>
<path d="M106.12 49.6054H109.895V70.5398H106.12V69.5045C104.833 70.3819 103.25 70.9083 101.51 70.9083C97.1087 70.9083 93.4902 67.2408 93.4902 62.8013C93.4902 58.3091 97.1087 54.7644 101.51 54.7644C103.25 54.7644 104.781 55.2207 106.12 56.1507V49.6054ZM97.2131 62.8013C97.2131 65.2229 99.2658 67.2408 101.614 67.2408C104.067 67.2408 106.12 65.2229 106.12 62.8013C106.12 60.3797 104.067 58.3091 101.614 58.3091C99.2658 58.3091 97.2131 60.3797 97.2131 62.8013Z" fill="#AFAFAF"/>
<path d="M119.202 70.9083C114.818 70.9083 111.183 67.2408 111.183 62.8012C111.183 58.309 114.818 54.7644 119.202 54.7644C120.89 54.7644 122.473 55.2206 123.76 56.1507V54.9048H127.587V70.5398H123.76V69.5045C122.473 70.3819 120.942 70.9083 119.202 70.9083ZM114.905 62.8012C114.905 65.2228 116.958 67.2408 119.359 67.2408C121.76 67.2408 123.76 65.2228 123.76 62.8012C123.76 60.3797 121.76 58.309 119.359 58.309C116.958 58.309 114.905 60.3797 114.905 62.8012Z" fill="#AFAFAF"/>
<path d="M55.688 62.8012C55.688 65.2228 57.7408 67.2408 60.1415 67.2408C62.5944 67.2408 64.6472 65.2228 64.6472 62.8012C64.6472 60.3797 62.5944 58.309 60.1415 58.309C57.7408 58.309 55.688 60.3797 55.688 62.8012ZM60.0371 70.9083C55.6359 70.9083 52 67.2408 52 62.8012C52 58.309 55.6359 54.7644 60.0371 54.7644C61.7246 54.7644 63.3077 55.2206 64.6472 56.1507V54.9048H68.4222V70.5398H64.6472V69.5045C63.3599 70.3819 61.7768 70.9083 60.0371 70.9083Z" fill="#AFAFAF"/>
</svg>
