<svg width="196" height="80" viewBox="0 0 196 80" fill="none" xmlns="http://www.w3.org/2000/svg">
<path d="M164.497 24.2091C161.441 27.3193 157.513 29.4296 153.233 30.2614C151.484 30.5377 149.699 30.4619 147.98 30.0385C148.786 28.8853 149.836 27.6724 150.781 26.5516C157.431 27.3648 163.281 24.0784 167.86 19.6512L168 19.6861C167.071 21.3666 165.89 22.8942 164.497 24.2154" fill="#AFAFAF"/>
<path d="M98.8845 33.1718L98.4884 33.3947L95.0837 33.2701C94.6877 33.0061 95.1597 32.6935 95.2718 32.3984L96.8073 29.8903L97.3278 29.7172L100.525 29.8007L100.566 30.3212L98.8982 33.1705" fill="#AFAFAF"/>
<path d="M88.1348 62.123C85.1244 60.3709 81.7553 59.3255 78.2818 59.0658C76.3017 59.1704 74.1124 59.4481 72.7301 61.2401C72.5221 61.4344 72.2918 61.9076 71.9593 61.6984C67.7762 55.8267 60.4599 57.1268 54.7202 58.1891C49.988 59.2451 44.9507 60.8042 40.0653 61.2737C35.8312 61.6212 31.3866 60.1965 29.2309 56.3124C26.7714 51.3996 28.2646 45.2713 30.2459 40.6499C33.8222 33.0612 39.4244 26.6074 46.4351 21.9999C49.6754 20.1021 53.2607 18.3362 57.0477 18.5591C57.5438 18.6268 58.0197 18.7994 58.4438 19.0654C58.8679 19.3315 59.2305 19.6849 59.5073 20.1021C60.6281 22.2191 59.4375 24.5491 58.1374 26.1407C57.8621 26.4799 57.5012 26.7395 57.0921 26.8927C56.6829 27.0459 56.2403 27.0872 55.8099 27.0124L55.2059 26.2652C55.1328 25.8131 55.1611 25.3503 55.2888 24.9105C55.4166 24.4707 55.6405 24.0648 55.9445 23.7222C56.2485 23.3796 56.6248 23.1089 57.0463 22.9297C57.4678 22.7505 57.9239 22.6673 58.3815 22.6861C58.5279 22.4585 58.6127 22.1968 58.6278 21.9266C58.6428 21.6564 58.5876 21.3869 58.4674 21.1444C57.8286 20.1369 56.6468 20.325 55.7501 20.4769C51.4351 21.797 48.1063 25.1531 44.9245 28.5653C39.8224 34.3872 35.5074 40.9525 34.0404 48.5004C33.6307 51.6412 33.8324 55.0596 36.3405 57.1791C41.9893 61.3485 49.4251 57.8952 55.4139 56.8242C63.9257 54.9687 73.5844 52.0372 81.7761 56.9487C84.1693 58.2928 86.3748 59.9467 88.3353 61.8678L88.1285 62.123" fill="#AFAFAF"/>
<path d="M84.1539 45.554C84.063 45.9501 83.8201 46.3884 84.0841 46.7695C84.2435 47.1431 84.7305 46.9849 85.0219 46.9015C87.5723 45.4768 89.3929 42.6836 91.1638 40.3212L92.053 40.2863L91.845 41.0995C89.4689 44.3859 86.9882 47.833 83.6034 50.1256C83.1093 50.5254 82.5328 50.811 81.9153 50.9617C81.2978 51.1124 80.6546 51.1246 80.0319 50.9974C79.6619 50.7919 79.3617 50.4806 79.1697 50.1034C78.9778 49.7263 78.9029 49.3003 78.9546 48.8803L79.0381 47.635L78.8226 47.6761C77.0443 49.2676 75.1464 51.4706 72.5201 50.9139C72.0441 50.7343 71.6327 50.4165 71.3386 50.0013C71.0446 49.5861 70.8814 49.0925 70.87 48.5839C70.8661 47.3467 71.0728 46.1179 71.4815 44.9501L71.4404 44.9015C68.55 47.5491 65.1029 51.3573 60.7879 50.6549C60.2515 50.5084 59.7532 50.2474 59.3273 49.8899C58.9015 49.5323 58.5581 49.0868 58.3209 48.5839C57.1677 45.4009 58.7032 42.1145 60.225 39.5304C60.4896 39.1556 60.7067 38.7494 60.8713 38.3212L60.8302 38.2378C60.0593 38.4395 59.1901 38.6612 58.4118 38.8081C57.036 41.2058 55.4352 43.4671 53.631 45.5615C51.5538 47.6786 49.3234 50.1132 46.3284 50.6412C45.822 50.7482 45.2963 50.7183 44.8053 50.5546C44.3144 50.3908 43.8759 50.0992 43.5351 49.7097C41.9648 47.2639 43.2363 44.026 44.1578 41.6637C46.4928 36.8343 50.4529 31.9838 55.296 29.7185C55.9281 29.3732 56.6316 29.179 57.3513 29.1514C58.0711 29.1237 58.7874 29.2633 59.4442 29.5591C59.9646 30.0651 60.3353 30.7048 60.5155 31.4079C60.6956 32.1111 60.6783 32.8503 60.4653 33.5441C60.154 34.8314 59.7242 36.0871 59.1814 37.2951C59.4454 37.5591 59.8277 37.254 60.1677 37.2253C64.1428 35.7521 66.3383 31.3324 70.403 29.8779C71.0193 29.5804 71.6934 29.4218 72.3777 29.4134C73.062 29.405 73.7397 29.547 74.3631 29.8293C74.7419 30.0514 75.06 30.3636 75.2892 30.7381C75.5184 31.1126 75.6516 31.5379 75.677 31.9763C75.7098 33.0529 75.4292 34.116 74.8692 35.0361C74.3092 35.9562 73.494 36.6939 72.5225 37.1593C72.0157 37.2154 71.5263 37.1319 71.3133 36.645C71.2048 36.1208 71.2441 35.5768 71.4269 35.0736C71.6096 34.5705 71.9286 34.1281 72.3482 33.7957C72.599 33.5451 72.9025 33.3534 73.2365 33.2345C73.5706 33.1156 73.9269 33.0725 74.2797 33.1083C74.5923 32.8517 74.5026 32.4557 74.5026 32.112C74.3781 31.8206 74.1963 31.4308 73.8077 31.3337C73.3641 31.2726 72.9126 31.3067 72.4832 31.4336C72.0537 31.5605 71.6562 31.7773 71.3171 32.0697C67.5877 35.0941 64.7787 39.1014 63.2075 43.6387C62.9981 44.1712 62.8982 44.7404 62.9138 45.3124C62.9295 45.8843 63.0603 46.4473 63.2984 46.9675C63.4852 47.2476 63.7416 47.4743 64.0425 47.6254C64.3433 47.7765 64.6783 47.8467 65.0145 47.8293C66.32 47.5898 67.5328 46.9907 68.5163 46.0995C74.1514 41.2639 77.1813 33.9402 83.657 30.1668C84.9982 29.6114 86.7217 29.0834 87.9309 30.2229L88.5698 30.7721C88.9521 30.4383 89.0418 29.8269 89.566 29.66H92.9359L93.1924 30.2229L84.1613 45.5677M87.7541 32.1569C87.7114 31.981 87.6265 31.8183 87.5067 31.6826C87.3869 31.547 87.2359 31.4426 87.0667 31.3785C85.114 31.462 83.7803 33.2826 82.5835 34.6164C80.0754 37.8966 77.3444 41.1755 76.2461 45.1082C76.1066 45.7197 75.926 46.5254 76.5375 46.9152L77.4889 46.9986C79.4279 45.9638 80.4777 44.0248 81.6719 42.3361C83.789 38.9588 85.7641 35.5616 87.7591 32.1494M58.7082 35.4445C59.1179 34.1793 59.6945 32.325 58.6945 31.1992C58.3059 31.0072 57.8718 30.9264 57.4401 30.9657C57.0085 31.0051 56.5961 31.163 56.2487 31.4221C55.5958 31.8021 55.0657 32.3615 54.7215 33.034C54.3774 33.7064 54.2335 34.4636 54.3072 35.2154C54.523 35.7447 54.8639 36.2139 55.3007 36.5826C55.7375 36.9513 56.2572 37.2086 56.8153 37.3324C57.1552 37.3249 57.5513 37.5964 57.8439 37.3249L58.7156 35.442L58.7082 35.4445ZM56.8041 39.1481L56.8601 38.5989C56.0474 38.42 55.2793 38.0785 54.6021 37.5948C53.9249 37.1111 53.3527 36.4953 52.9199 35.7845L52.621 35.7571C50.9847 37.844 49.6317 40.1383 48.5974 42.5802C48.2574 43.6923 47.6111 45.2141 48.57 46.2763C48.9934 46.7969 49.8153 46.6649 50.3695 46.4843C52.1525 45.3783 53.684 43.9109 54.8651 42.1767L56.8041 39.1543V39.1481Z" fill="#AFAFAF"/>
<path d="M143.786 28.406C140.131 26.5156 136.699 24.0212 132.988 22.3749C131.396 21.8194 129.501 21.1295 127.86 21.6389L127.644 21.8543C127.949 24.6899 126.817 27.2092 125.664 29.5878C123.767 32.5267 121.481 35.6263 118.02 36.3972C117.613 36.4742 117.193 36.4297 116.811 36.2691C116.429 36.1086 116.103 35.8391 115.873 35.4943C114.887 33.7783 115.832 31.8393 116.609 30.2764C118.617 26.503 121.666 23.3847 125.393 21.2914L125.455 20.9577C124.239 20.6197 122.94 20.7717 121.835 21.3811C115.352 24.4458 110.522 30.2054 106.118 35.8405C102.365 41.1954 98.9669 46.7994 98.2309 53.4619C98.0836 54.3798 98.2016 55.3206 98.5709 56.1737C98.9402 57.0268 99.5455 57.7567 100.316 58.2775C102.588 59.6188 105.215 57.9438 107.084 56.422C110.762 53.463 113.204 49.2389 113.933 44.5752C113.933 43.7409 113.974 42.7546 113.162 42.3175C111.689 41.9289 110.355 43.2627 109.535 44.4345C108.448 45.862 107.722 47.5306 107.418 49.2988C106.824 49.6769 106.193 49.9936 105.535 50.244C104.301 51.0171 103.179 51.9557 102.2 53.0335L101.901 52.9637C102.157 50.9974 102.73 49.0853 103.596 47.3013C105.187 43.7994 108.46 40.6512 112.253 40.2826C112.743 40.2564 113.231 40.3699 113.659 40.6097C114.087 40.8496 114.438 41.206 114.672 41.6375C115.574 43.4507 115.019 45.8965 114.456 47.711C112.322 53.5015 108.109 58.29 102.637 61.143C99.927 62.1779 96.8486 62.3522 94.6045 60.1082C91.7627 57.2663 92.0192 52.437 93.2633 48.9413C95.3162 43.1096 98.4332 37.7094 102.456 33.0149C107.585 27.0187 113.726 21.543 121.261 19.4508C123.129 19.0274 125.506 18.8954 126.909 20.4471C127.82 20.3637 128.591 19.8917 129.474 19.7248C132.735 18.8154 136.223 19.2298 139.181 20.878C141.856 22.1357 144.399 23.6849 146.957 25.1519C145.979 26.313 144.922 27.4049 143.794 28.4197M126.457 24.1121C126.506 23.5492 126.764 22.5978 126.234 22.2441C122.24 24.3277 119.037 27.6625 117.117 31.7384C116.735 32.6973 116.193 34.1282 117.048 34.9763C117.238 35.0971 117.45 35.1784 117.672 35.2155C117.894 35.2525 118.121 35.2444 118.34 35.1917C119.958 34.4983 121.382 33.4202 122.489 32.051C124.523 29.8224 125.899 27.0728 126.464 24.1083" fill="#AFAFAF"/>
<path d="M153.293 52.0098C152.151 53.6518 151.169 55.399 150.36 57.2277L150.443 58.0471L151.354 58.1032C153.89 56.6648 155.828 53.7881 157.573 51.356L158.491 51.2514L158.227 52.2103C155.544 55.9836 152.514 60.2987 148.117 61.9724C147.726 62.1201 147.301 62.1555 146.891 62.0745C146.481 61.9935 146.102 61.7994 145.796 61.5141C145.496 61.0666 145.304 60.5563 145.233 60.0226C145.162 59.4888 145.214 58.9459 145.386 58.4357L145.359 58.4083C143.81 59.8603 142.204 61.473 140.217 62.001C139.754 62.1039 139.273 62.085 138.82 61.9462C138.367 61.8074 137.957 61.5534 137.632 61.209C137.005 59.9968 136.854 58.5941 137.208 57.2763L137.084 57.3323C135.43 59.1393 133.714 60.9799 131.511 61.7308C131.033 61.8602 130.528 61.8519 130.055 61.7069C129.582 61.5619 129.159 61.2862 128.836 60.9114C127.543 59.3199 128.232 56.9787 128.648 55.2203C129.044 53.5316 129.739 51.9401 130.259 50.2938L130.079 50.224C129.255 50.3708 128.423 50.466 127.588 50.5092C125.177 54.5814 122.077 59.0559 117.708 61.2514C117.181 61.5521 116.597 61.7379 115.993 61.7965C115.389 61.8551 114.78 61.7852 114.206 61.5913C112.705 60.7918 112.573 59.0546 112.726 57.5054C113.204 54.9145 114.177 52.4399 115.591 50.2165C118.092 46.4569 121.247 42.427 125.471 40.7596C126.006 40.5016 126.589 40.3561 127.183 40.3321C127.777 40.3081 128.37 40.4061 128.924 40.6201C130.294 41.5864 130.203 43.2191 129.994 44.7296C129.625 46.2952 129.045 47.8034 128.27 49.2128C128.354 49.5528 128.806 49.3859 129.041 49.3859C129.691 49.2981 130.322 49.1055 130.909 48.8156C135.96 38.7197 142.68 28.7198 152.137 21.6189C153.729 20.604 155.458 19.3886 157.529 19.604C157.918 19.7634 158.453 20.1108 158.526 20.6003C158.873 22.6227 157.755 24.2117 156.893 25.853L155.969 26.0261L156.031 25.3798C156.621 24.0946 157.532 22.8431 157.448 21.3213L156.878 20.9875C154.683 21.7098 153.341 23.3985 151.625 24.9415C146.31 30.1718 142.523 36.5105 138.715 42.7371C138.08 43.757 137.523 44.8231 137.047 45.9264C137.904 45.5044 138.7 44.9691 139.414 44.3349C144.303 40.237 148.769 35.6596 152.746 30.6712C152.882 30.5645 153.039 30.4881 153.207 30.4473C153.374 30.4065 153.549 30.4021 153.719 30.4346L153.587 31.0871C148.637 37.7664 142.62 43.5841 135.778 48.3062C134.478 50.7946 133.535 53.4544 132.978 56.2066C132.909 56.5085 132.901 56.8211 132.953 57.1263C133.006 57.4316 133.118 57.7233 133.284 57.9849C133.401 58.1124 133.553 58.2036 133.72 58.2477C133.888 58.2918 134.064 58.2871 134.229 58.2339C136.376 57.3448 137.405 54.9961 138.851 53.3211C141.79 48.9227 145.188 43.9202 149.899 41.2863C150.45 40.9475 151.074 40.7472 151.719 40.7025C152.364 40.6578 153.011 40.7701 153.603 41.0298C154.002 41.3461 154.377 41.692 154.724 42.0647C155.411 41.7583 155.286 40.564 156.273 40.7371L159.462 40.7583L159.594 41.2938L153.299 52.036M128.798 45.173C128.909 44.1443 129.146 42.7683 128.146 42.1232C127.809 42.0195 127.451 41.9969 127.104 42.0572C126.756 42.1176 126.427 42.2592 126.145 42.4706C125.419 42.8133 124.822 43.3776 124.439 44.082C124.055 44.7865 123.905 45.5946 124.011 46.3897C124.15 46.9492 124.416 47.4693 124.788 47.9093C125.16 48.3493 125.629 48.6974 126.158 48.9264L127.117 49.0721C127.842 47.8499 128.407 46.5387 128.798 45.173ZM126.366 50.2601C124.731 49.6964 123.373 48.5281 122.572 46.9949L122.44 46.9389C120.665 49.0743 119.242 51.4783 118.222 54.0609C117.944 55.0957 117.444 56.4095 118.131 57.3896C118.298 57.5814 118.512 57.726 118.753 57.8088C118.993 57.8917 119.251 57.9099 119.501 57.8616C121.405 57.2987 122.746 55.5826 124.024 54.026C124.95 52.8661 125.734 51.5993 126.359 50.2527M153.59 42.7346C153.243 42.6404 152.878 42.6368 152.529 42.724C152.18 42.8112 151.86 42.9864 151.598 43.2328C148.283 45.7757 146.081 49.2228 143.919 52.6624C143.029 54.0897 142.495 55.7102 142.363 57.3871L142.842 58.0334C143.877 58.4158 144.684 57.3871 145.427 56.8317C148.783 52.8155 151.084 48.0559 153.877 43.7558C154.092 43.4158 153.836 42.9638 153.578 42.7409" fill="#AFAFAF"/>
</svg>
