<svg width="196" height="80" viewBox="0 0 196 80" fill="none" xmlns="http://www.w3.org/2000/svg">
<path d="M98.0096 80C90.0984 80.0019 82.3642 77.6578 75.7852 73.2641C69.2062 68.8704 64.0778 62.6245 61.0485 55.3162C58.0193 48.0079 57.2252 39.9654 58.7667 32.2058C60.3083 24.4462 64.1162 17.318 69.709 11.7225C75.3017 6.12709 82.4281 2.31575 90.187 0.770481C97.9459 -0.77479 105.989 0.0154127 113.298 3.04116C120.608 6.06691 126.857 11.1923 131.253 17.7692C135.65 24.3461 137.998 32.0792 138 39.9904C137.989 50.5948 133.772 60.7618 126.276 68.2621C118.779 75.7623 108.614 79.9835 98.0096 80ZM98.0096 4.27202C90.9434 4.27075 84.0355 6.36506 78.1596 10.2901C72.2837 14.2151 67.7037 19.7945 64.999 26.3226C62.2943 32.8507 61.5863 40.0343 62.9645 46.9648C64.3428 53.8953 67.7454 60.2615 72.742 65.2581C77.7386 70.2546 84.1047 73.6572 91.0352 75.0355C97.9657 76.4137 105.149 75.7057 111.677 73.001C118.206 70.2963 123.785 65.7163 127.71 59.8404C131.635 53.9646 133.729 47.0567 133.728 39.9904C133.714 30.5215 129.947 21.4442 123.251 14.7487C116.556 8.05309 107.479 4.28556 98.0096 4.27202Z" fill="#AFAFAF"/>
<path fill-rule="evenodd" clip-rule="evenodd" d="M110.287 26.3616L97.4595 46.6288H83.4067L86.6563 41.6384H95.3939L98.5555 36.5872H79.0611L75.8931 41.6384H80.5619L74.2051 51.68H100.378L110.287 35.8784L113.906 41.6384H110.799L107.624 46.6288H117.088L120.256 51.68H126.277L110.287 26.3616Z" fill="#AFAFAF"/>
<path fill-rule="evenodd" clip-rule="evenodd" d="M106.075 26.5504H85.4176L82.2432 31.616L102.901 31.5488L106.075 26.5504Z" fill="#AFAFAF"/>
<path fill-rule="evenodd" clip-rule="evenodd" d="M118.177 26.2145V26.5569H117.377V28.6289H116.784V26.5569H115.984V26.2145H118.169H118.177ZM119.441 26.2145L120.134 27.8145L120.72 26.2145H121.52V28.6225H120.949V26.6721L120.256 28.6225H119.905L119.213 26.6721V28.6225H118.633V26.2145H119.433H119.441Z" fill="#AFAFAF"/>
</svg>
