<svg width="196" height="80" viewBox="0 0 196 80" fill="none" xmlns="http://www.w3.org/2000/svg">
<path d="M151.878 27.6544C152.356 27.8668 152.878 27.973 153.427 27.973C153.975 27.973 154.497 27.8668 154.975 27.6544C155.462 27.442 155.878 27.1589 156.241 26.7961C156.603 26.4332 156.895 26.0085 157.099 25.5306C157.302 25.0528 157.409 24.5307 157.409 23.9821C157.409 23.4334 157.311 22.9113 157.099 22.4335C156.887 21.9468 156.603 21.5309 156.241 21.1681C155.878 20.8053 155.453 20.5221 154.975 20.3097C154.497 20.1062 153.975 20 153.427 20C152.878 20 152.356 20.0973 151.878 20.3097C151.391 20.5221 150.975 20.8053 150.613 21.1681C150.25 21.5309 149.967 21.9556 149.754 22.4335C149.542 22.9113 149.436 23.4334 149.436 23.9821C149.436 24.5307 149.542 25.0439 149.754 25.5306C149.967 26.0173 150.25 26.4332 150.613 26.7961C150.975 27.1589 151.4 27.442 151.878 27.6544ZM154.604 26.9642C154.241 27.1235 153.843 27.2031 153.427 27.2031C153.002 27.2031 152.613 27.1235 152.25 26.9642C151.887 26.8138 151.568 26.5837 151.294 26.3005C151.02 26.0173 150.807 25.6722 150.648 25.2829C150.489 24.8935 150.409 24.4599 150.409 23.9998C150.409 23.5396 150.489 23.106 150.648 22.7166C150.807 22.3273 151.02 21.9822 151.294 21.699C151.568 21.4158 151.887 21.1946 152.25 21.0353C152.613 20.8761 153.002 20.7964 153.427 20.7964C153.851 20.7964 154.241 20.8761 154.604 21.0353C154.966 21.1858 155.285 21.4158 155.559 21.699C155.834 21.9822 156.046 22.3273 156.205 22.7166C156.364 23.106 156.444 23.5396 156.444 23.9998C156.444 24.4599 156.364 24.8935 156.205 25.2829C156.046 25.6722 155.834 26.0173 155.559 26.3005C155.285 26.5837 154.966 26.8049 154.604 26.9642ZM153.568 21.7167H151.896V26.2297H152.736V24.2918H153.241L154.409 26.2297H155.267L154.055 24.2564C154.427 24.2121 154.719 24.106 154.922 23.9113C155.126 23.7166 155.232 23.4246 155.232 23.0352C155.232 22.5574 155.09 22.2211 154.807 22.0176C154.524 21.814 154.108 21.7167 153.568 21.7167ZM152.745 23.6458H153.48C153.604 23.6458 153.719 23.6458 153.834 23.6281C153.94 23.6104 154.037 23.5839 154.126 23.5396C154.214 23.4954 154.276 23.4334 154.329 23.3449C154.382 23.2565 154.409 23.1326 154.409 22.9821C154.409 22.8494 154.382 22.7432 154.329 22.6636C154.276 22.5839 154.205 22.522 154.117 22.4777C154.028 22.4335 153.931 22.4069 153.825 22.3892C153.719 22.3715 153.612 22.3715 153.497 22.3715H152.745V23.6458ZM83.767 20.0088H71.3695V59.8295H83.767V20.0088ZM37 20.0089V59.8295H49.3975V45.4497H58.3173L61.4852 36.7424H49.3975V28.6809H64.4144L67.5822 20.0089H37ZM92.2886 59.8295V20.0088H122.871L119.712 28.6809H104.686V36.7424H116.783L113.606 45.4497H104.686V59.8295H92.2886ZM158.356 59.8295H145.843L144.224 54.4847H130.216L128.667 59.8295H116.464L130.968 20.0089H143.852L158.356 59.8295ZM142.171 46.8302L137.215 30.2383L132.428 46.8302H142.171Z" fill="#AFAFAF"/>
</svg>
