<svg width="196" height="80" viewBox="0 0 196 80" fill="none" xmlns="http://www.w3.org/2000/svg">
<path d="M41.0453 33.3034V38.4057H53.241C52.8676 41.268 51.9136 43.3628 50.4617 44.8354C48.678 46.6191 45.8987 48.5688 41.0453 48.5688C33.5371 48.5688 27.6674 42.5124 27.6674 35.0042C27.6674 27.496 33.5371 21.4397 41.0453 21.4397C45.0898 21.4397 48.0558 23.0367 50.2336 25.0901L53.8217 21.5019C50.7936 18.5567 46.7283 16.3167 41.0453 16.3167C30.7578 16.3167 22.1089 24.696 22.1089 34.9835C22.1089 45.271 30.7578 53.6503 41.0453 53.6503C46.6039 53.6503 50.7936 51.8251 54.0706 48.4236C57.4306 45.0635 58.4884 40.3139 58.4884 36.4975C58.4884 35.3153 58.4055 34.216 58.2188 33.3034H41.0453Z" fill="#AFAFAF"/>
<path d="M73.7331 29.1553C67.0752 29.1553 61.6411 34.2161 61.6411 41.2057C61.6411 48.1332 67.0752 53.2562 73.7331 53.2562C80.3909 53.2562 85.825 48.1539 85.825 41.2057C85.825 34.2161 80.3909 29.1553 73.7331 29.1553ZM73.7331 48.5065C70.0827 48.5065 66.93 45.4991 66.93 41.2057C66.93 36.8709 70.0827 33.9049 73.7331 33.9049C77.3835 33.9049 80.5361 36.8709 80.5361 41.2057C80.5361 45.4991 77.3835 48.5065 73.7331 48.5065Z" fill="#AFAFAF"/>
<path d="M133.011 31.8516H132.824C131.642 30.4412 129.36 29.1553 126.477 29.1553C120.462 29.1553 115.215 34.4027 115.215 41.2057C115.215 47.9673 120.462 53.2562 126.477 53.2562C129.36 53.2562 131.642 51.9703 132.824 50.5184H133.011V52.1984C133.011 56.8029 130.542 59.2711 126.581 59.2711C123.345 59.2711 121.333 56.9481 120.504 54.9777L115.899 56.8859C117.227 60.08 120.732 64 126.581 64C132.782 64 138.03 60.3496 138.03 51.4517V29.7775H133.011V31.8516ZM126.933 48.5065C123.283 48.5065 120.504 45.3954 120.504 41.2057C120.504 36.9539 123.283 33.9049 126.933 33.9049C130.542 33.9049 133.363 37.0161 133.363 41.2472C133.384 45.4576 130.542 48.5065 126.933 48.5065Z" fill="#AFAFAF"/>
<path d="M100.696 29.1553C94.0381 29.1553 88.604 34.2161 88.604 41.2057C88.604 48.1332 94.0381 53.2562 100.696 53.2562C107.354 53.2562 112.788 48.1539 112.788 41.2057C112.788 34.2161 107.354 29.1553 100.696 29.1553ZM100.696 48.5065C97.0456 48.5065 93.8929 45.4991 93.8929 41.2057C93.8929 36.8709 97.0456 33.9049 100.696 33.9049C104.346 33.9049 107.499 36.8709 107.499 41.2057C107.499 45.4991 104.346 48.5065 100.696 48.5065Z" fill="#AFAFAF"/>
<path d="M142.178 16.8145H147.384V53.2562H142.178V16.8145Z" fill="#AFAFAF"/>
<path d="M163.458 48.5065C160.762 48.5065 158.854 47.2828 157.609 44.8561L173.725 38.1983L173.185 36.8294C172.19 34.1331 169.12 29.1553 162.877 29.1553C156.676 29.1553 151.511 34.0294 151.511 41.2057C151.511 47.9673 156.613 53.2562 163.458 53.2562C168.975 53.2562 172.169 49.8754 173.497 47.9258L169.39 45.188C168.021 47.1791 166.154 48.5065 163.458 48.5065ZM163.085 33.6768C165.221 33.6768 167.046 34.7761 167.648 36.3316L156.759 40.8324C156.759 35.7716 160.347 33.6768 163.085 33.6768Z" fill="#AFAFAF"/>
</svg>
