<svg width="196" height="80" viewBox="0 0 196 80" fill="none" xmlns="http://www.w3.org/2000/svg">
<path d="M105.737 43.1918C105.661 43.2107 105.357 43.2107 105.224 43.2107H95.432V45.487H105.395C105.471 45.487 106.059 45.487 106.173 45.468C108.204 45.2783 109.134 43.5901 109.134 42.1105C109.134 40.593 108.166 38.9617 106.325 38.791C105.965 38.7531 105.661 38.7531 105.528 38.7531H99.0188C98.7341 38.7531 98.4115 38.7341 98.2976 38.6962C97.7852 38.5634 97.5955 38.1081 97.5955 37.7288C97.5955 37.3873 97.7853 36.9321 98.3166 36.7803C98.4684 36.7424 98.6392 36.7234 98.9998 36.7234H108.394V34.4851H98.848C98.4495 34.4851 98.1458 34.5041 97.8991 34.542C96.2671 34.7696 95.1284 36.0785 95.1284 37.7477C95.1284 39.1135 95.9824 40.7069 97.8612 40.9724C98.2028 41.0104 98.6772 41.0104 98.8859 41.0104H105.224C105.338 41.0104 105.623 41.0104 105.68 41.0293C106.401 41.1242 106.648 41.6553 106.648 42.1295C106.648 42.5848 106.363 43.0779 105.737 43.1918ZM87.1768 43.1918C87.1009 43.2107 86.7973 43.2107 86.6834 43.2107H76.8721V45.487H86.8353C86.9112 45.487 87.4995 45.487 87.6133 45.468C89.6439 45.2783 90.5738 43.5901 90.5738 42.1105C90.5738 40.593 89.606 38.9617 87.7651 38.791C87.4046 38.7531 87.1009 38.7531 86.9681 38.7531H80.4588C80.1742 38.7531 79.8515 38.7341 79.7377 38.6962C79.2253 38.5634 79.0355 38.1081 79.0355 37.7288C79.0355 37.3873 79.2253 36.9321 79.7567 36.7803C79.9085 36.7424 80.0793 36.7234 80.4398 36.7234H89.8337V34.4851H80.288C79.8895 34.4851 79.5859 34.5041 79.3392 34.542C77.7071 34.7696 76.5684 36.0785 76.5684 37.7477C76.5684 39.1135 77.4224 40.7069 79.3012 40.9724C79.6428 41.0104 80.1172 41.0104 80.326 41.0104H86.6645C86.7783 41.0104 87.063 41.0104 87.1199 41.0293C87.8411 41.1242 88.0878 41.6553 88.0878 42.1295C88.0878 42.5848 87.8221 43.0779 87.1768 43.1918ZM69.3001 34.4092H71.7671V45.5439H69.3001V34.4092ZM53.1692 34.4092H50V45.5439H52.4671V37.1976L60.7412 45.5439H63.8535V34.4092H61.3865V42.7175L53.1692 34.4092ZM131.812 45.5439H134.279V37.1976L142.534 45.5439H145.646V34.4092H143.198V42.7175L134.981 34.4092H131.812V45.5439ZM118.964 34.4092L112.018 45.5439H115.017L116.25 43.5522H124.354L125.587 45.5439H128.567L121.621 34.4092H118.964ZM123.082 41.4466H117.522L120.311 36.97L123.082 41.4466ZM63.7207 28.0927C68.6928 13.5816 82.3945 3.83168 97.8422 3.83168C113.29 3.83168 127.011 13.5816 131.964 28.0927L132.002 28.2065H142.876V26.8976L138.359 26.3665C135.569 26.044 134.981 24.8111 134.222 23.2556L134.032 22.8763C127.504 8.99117 113.29 0 97.8422 0C82.3755 0 68.1804 8.99117 61.6522 22.9142L61.4624 23.2936C60.7033 24.849 60.115 26.082 57.3253 26.4044L52.8087 26.9356V28.2444H63.6638L63.7207 28.0927ZM132.002 51.7656L131.964 51.8794C126.992 66.3905 113.29 76.1214 97.8422 76.1214C82.3945 76.1214 68.6738 66.3715 63.7207 51.8605L63.6827 51.7466H52.8276V53.0555L57.3443 53.5866C60.134 53.9091 60.7223 55.142 61.4814 56.6975L61.6711 57.0769C68.1994 70.9999 82.4135 79.9911 97.8612 79.9911C113.309 79.9911 127.523 70.9999 134.051 57.0958L134.241 56.7164C135 55.161 135.588 53.928 138.378 53.6056L142.895 53.0745V51.7656H132.002Z" fill="#AFAFAF"/>
</svg>
